HIERARCHY
ROOT mixamorig:Hips
{
	OFFSET 0.000000 201.639420 0.000000
	CHANNELS 6 Xposition Yposition Zposition Xrotation Yrotation Zrotation
	JOINT mixamorig:Spine
	{
		OFFSET 0.006200 19.524994 -2.481800
		CHANNELS 3 Xrotation Yrotation Zrotation
		JOINT mixamorig:Spine1
		{
			OFFSET -0.000900 22.835007 -2.825400
			CHANNELS 3 Xrotation Yrotation Zrotation
			JOINT mixamorig:Spine2
			{
				OFFSET -0.020600 26.552490 -3.193300
				CHANNELS 3 Xrotation Yrotation Zrotation
				JOINT mixamorig:Neck
				{
					OFFSET -0.060000 30.701813 1.352200
					CHANNELS 3 Xrotation Yrotation Zrotation
					JOINT mixamorig:Head
					{
						OFFSET -0.087200 22.547607 3.670900
						CHANNELS 3 Xrotation Yrotation Zrotation
						JOINT mixamorig:HeadTop_End
						{
							OFFSET -0.830600 40.355194 7.893500
							CHANNELS 3 Xrotation Yrotation Zrotation
							End Site
							{
								OFFSET 0.000000 30.592346 0.000000
							}
						}
						JOINT mixamorig:RightEye
						{
							OFFSET -6.302100 18.118591 16.197100
							CHANNELS 3 Xrotation Yrotation Zrotation
							End Site
							{
								OFFSET 0.000000 30.592346 0.000000
							}
						}
						JOINT mixamorig:LeftEye
						{
							OFFSET 6.741500 18.382690 16.401899
							CHANNELS 3 Xrotation Yrotation Zrotation
							End Site
							{
								OFFSET 0.000000 30.592346 0.000000
							}
						}
					}
				}
				JOINT mixamorig:LeftShoulder
				{
					OFFSET 11.924900 18.230499 1.425400
					CHANNELS 3 Xrotation Yrotation Zrotation
					JOINT mixamorig:LeftArm
					{
						OFFSET 25.435989 -0.697632 -5.229300
						CHANNELS 3 Xrotation Yrotation Zrotation
						JOINT mixamorig:LeftForeArm
						{
							OFFSET 54.684776 0.000000 0.000000
							CHANNELS 3 Xrotation Yrotation Zrotation
							JOINT mixamorig:LeftHand
							{
								OFFSET 55.098175 0.000000 0.000000
								CHANNELS 3 Xrotation Yrotation Zrotation
								JOINT mixamorig:LeftHandMiddle1
								{
									OFFSET 23.369751 0.000000 0.000000
									CHANNELS 3 Xrotation Yrotation Zrotation
									JOINT mixamorig:LeftHandMiddle2
									{
										OFFSET 6.378677 0.000000 0.000000
										CHANNELS 3 Xrotation Yrotation Zrotation
										JOINT mixamorig:LeftHandMiddle3
										{
											OFFSET 6.148331 0.000000 0.000000
											CHANNELS 3 Xrotation Yrotation Zrotation
											JOINT mixamorig:LeftHandMiddle4
											{
												OFFSET 6.582504 0.000000 0.000000
												CHANNELS 3 Xrotation Yrotation Zrotation
												End Site
												{
													OFFSET -1.168900 6.395691 1.028606
												}
											}
										}
									}
								}
								JOINT mixamorig:LeftHandThumb1
								{
									OFFSET 7.235672 -3.848206 5.434273
									CHANNELS 3 Xrotation Yrotation Zrotation
									JOINT mixamorig:LeftHandThumb2
									{
										OFFSET 6.568451 -3.792297 3.792300
										CHANNELS 3 Xrotation Yrotation Zrotation
										JOINT mixamorig:LeftHandThumb3
										{
											OFFSET 6.063080 -3.500519 3.500518
											CHANNELS 3 Xrotation Yrotation Zrotation
											JOINT mixamorig:LeftHandThumb4
											{
												OFFSET 4.793182 -2.767334 2.767349
												CHANNELS 3 Xrotation Yrotation Zrotation
												End Site
												{
													OFFSET 0.101639 6.054260 1.275483
												}
											}
										}
									}
								}
								JOINT mixamorig:LeftHandIndex1
								{
									OFFSET 23.101074 -0.309540 4.992809
									CHANNELS 3 Xrotation Yrotation Zrotation
									JOINT mixamorig:LeftHandIndex2
									{
										OFFSET 6.226883 0.000000 0.000000
										CHANNELS 3 Xrotation Yrotation Zrotation
										JOINT mixamorig:LeftHandIndex3
										{
											OFFSET 6.094330 0.000000 0.000000
											CHANNELS 3 Xrotation Yrotation Zrotation
											JOINT mixamorig:LeftHandIndex4
											{
												OFFSET 5.482605 0.000000 0.000000
												CHANNELS 3 Xrotation Yrotation Zrotation
												End Site
												{
													OFFSET -1.427902 5.233032 0.797164
												}
											}
										}
									}
								}
								JOINT mixamorig:LeftHandRing1
								{
									OFFSET 22.299240 0.021149 -3.964172
									CHANNELS 3 Xrotation Yrotation Zrotation
									JOINT mixamorig:LeftHandRing2
									{
										OFFSET 6.321869 0.000000 0.000000
										CHANNELS 3 Xrotation Yrotation Zrotation
										JOINT mixamorig:LeftHandRing3
										{
											OFFSET 5.899796 0.000000 0.000000
											CHANNELS 3 Xrotation Yrotation Zrotation
											JOINT mixamorig:LeftHandRing4
											{
												OFFSET 6.517899 0.000000 0.000000
												CHANNELS 3 Xrotation Yrotation Zrotation
												End Site
												{
													OFFSET -1.637299 6.232208 0.980890
												}
											}
										}
									}
								}
								JOINT mixamorig:LeftHandPinky1
								{
									OFFSET 20.463791 -0.302338 -8.562233
									CHANNELS 3 Xrotation Yrotation Zrotation
									JOINT mixamorig:LeftHandPinky2
									{
										OFFSET 6.908646 0.000000 0.000000
										CHANNELS 3 Xrotation Yrotation Zrotation
										JOINT mixamorig:LeftHandPinky3
										{
											OFFSET 4.622849 0.000000 0.000000
											CHANNELS 3 Xrotation Yrotation Zrotation
											JOINT mixamorig:LeftHandPinky4
											{
												OFFSET 5.216080 0.000000 0.000000
												CHANNELS 3 Xrotation Yrotation Zrotation
												End Site
												{
													OFFSET -0.606308 5.116241 0.814926
												}
											}
										}
									}
								}
							}
						}
					}
				}
				JOINT mixamorig:RightShoulder
				{
					OFFSET -12.001300 18.284088 1.348900
					CHANNELS 3 Xrotation Yrotation Zrotation
					JOINT mixamorig:RightArm
					{
						OFFSET -25.308500 -0.751312 -5.164599
						CHANNELS 3 Xrotation Yrotation Zrotation
						JOINT mixamorig:RightForeArm
						{
							OFFSET -54.684429 0.000000 0.000000
							CHANNELS 3 Xrotation Yrotation Zrotation
							JOINT mixamorig:RightHand
							{
								OFFSET -55.150291 0.000000 0.000000
								CHANNELS 3 Xrotation Yrotation Zrotation
								JOINT mixamorig:RightHandMiddle1
								{
									OFFSET -23.317566 0.000000 0.000000
									CHANNELS 3 Xrotation Yrotation Zrotation
									JOINT mixamorig:RightHandMiddle2
									{
										OFFSET -6.378403 0.000000 0.000000
										CHANNELS 3 Xrotation Yrotation Zrotation
										JOINT mixamorig:RightHandMiddle3
										{
											OFFSET -6.148193 0.000000 0.000000
											CHANNELS 3 Xrotation Yrotation Zrotation
											JOINT mixamorig:RightHandMiddle4
											{
												OFFSET -6.583389 0.000000 0.000000
												CHANNELS 3 Xrotation Yrotation Zrotation
												End Site
												{
													OFFSET 1.171692 6.395905 1.029786
												}
											}
										}
									}
								}
								JOINT mixamorig:RightHandThumb1
								{
									OFFSET -7.190521 -3.860474 5.435846
									CHANNELS 3 Xrotation Yrotation Zrotation
									JOINT mixamorig:RightHandThumb2
									{
										OFFSET -6.567429 -3.791718 3.791708
										CHANNELS 3 Xrotation Yrotation Zrotation
										JOINT mixamorig:RightHandThumb3
										{
											OFFSET -6.062469 -3.500153 3.500166
											CHANNELS 3 Xrotation Yrotation Zrotation
											JOINT mixamorig:RightHandThumb4
											{
												OFFSET -4.792618 -2.767029 2.767022
												CHANNELS 3 Xrotation Yrotation Zrotation
												End Site
												{
													OFFSET -0.100327 6.053253 1.276754
												}
											}
										}
									}
								}
								JOINT mixamorig:RightHandIndex1
								{
									OFFSET -23.048981 -0.310791 4.992554
									CHANNELS 3 Xrotation Yrotation Zrotation
									JOINT mixamorig:RightHandIndex2
									{
										OFFSET -6.227539 0.000000 0.000000
										CHANNELS 3 Xrotation Yrotation Zrotation
										JOINT mixamorig:RightHandIndex3
										{
											OFFSET -6.095047 0.000000 0.000000
											CHANNELS 3 Xrotation Yrotation Zrotation
											JOINT mixamorig:RightHandIndex4
											{
												OFFSET -5.484772 0.000000 0.000000
												CHANNELS 3 Xrotation Yrotation Zrotation
												End Site
												{
													OFFSET 1.420593 5.237305 0.797056
												}
											}
										}
									}
								}
								JOINT mixamorig:RightHandRing1
								{
									OFFSET -22.246323 0.020569 -3.963762
									CHANNELS 3 Xrotation Yrotation Zrotation
									JOINT mixamorig:RightHandRing2
									{
										OFFSET -6.322128 0.000000 0.000000
										CHANNELS 3 Xrotation Yrotation Zrotation
										JOINT mixamorig:RightHandRing3
										{
											OFFSET -5.900024 0.000000 0.000000
											CHANNELS 3 Xrotation Yrotation Zrotation
											JOINT mixamorig:RightHandRing4
											{
												OFFSET -6.518356 0.000000 0.000000
												CHANNELS 3 Xrotation Yrotation Zrotation
												End Site
												{
													OFFSET 1.636398 6.232697 0.982186
												}
											}
										}
									}
								}
								JOINT mixamorig:RightHandPinky1
								{
									OFFSET -20.411011 -0.303314 -8.561701
									CHANNELS 3 Xrotation Yrotation Zrotation
									JOINT mixamorig:RightHandPinky2
									{
										OFFSET -6.907349 0.000000 0.000000
										CHANNELS 3 Xrotation Yrotation Zrotation
										JOINT mixamorig:RightHandPinky3
										{
											OFFSET -4.623840 0.000000 0.000000
											CHANNELS 3 Xrotation Yrotation Zrotation
											JOINT mixamorig:RightHandPinky4
											{
												OFFSET -5.218353 0.000000 0.000000
												CHANNELS 3 Xrotation Yrotation Zrotation
												End Site
												{
													OFFSET 0.602097 5.118835 0.816273
												}
											}
										}
									}
								}
							}
						}
					}
				}
			}
		}
	}
	JOINT mixamorig:LeftUpLeg
	{
		OFFSET 18.168400 -13.561905 -0.039000
		CHANNELS 3 Xrotation Yrotation Zrotation
		JOINT mixamorig:LeftLeg
		{
			OFFSET 0.577358 -80.825211 -3.695000
			CHANNELS 3 Xrotation Yrotation Zrotation
			JOINT mixamorig:LeftFoot
			{
				OFFSET -0.577356 -83.370262 -6.520700
				CHANNELS 3 Xrotation Yrotation Zrotation
				JOINT mixamorig:LeftToeBase
				{
					OFFSET 0.750401 -20.798306 25.135401
					CHANNELS 3 Xrotation Yrotation Zrotation
					JOINT mixamorig:LeftToe_End
					{
						OFFSET -0.000500 0.001200 19.917799
						CHANNELS 3 Xrotation Yrotation Zrotation
						End Site
						{
							OFFSET 0.000000 19.917805 0.000000
						}
					}
				}
			}
		}
	}
	JOINT mixamorig:RightUpLeg
	{
		OFFSET -18.162500 -13.585098 -0.041000
		CHANNELS 3 Xrotation Yrotation Zrotation
		JOINT mixamorig:RightLeg
		{
			OFFSET -0.595024 -80.945297 -3.631900
			CHANNELS 3 Xrotation Yrotation Zrotation
			JOINT mixamorig:RightFoot
			{
				OFFSET 0.595024 -83.218193 -6.561200
				CHANNELS 3 Xrotation Yrotation Zrotation
				JOINT mixamorig:RightToeBase
				{
					OFFSET -0.753601 -20.807106 25.115000
					CHANNELS 3 Xrotation Yrotation Zrotation
					JOINT mixamorig:RightToe_End
					{
						OFFSET 0.000299 0.001700 19.918200
						CHANNELS 3 Xrotation Yrotation Zrotation
						End Site
						{
							OFFSET 0.000000 19.918203 0.000000
						}
					}
				}
			}
		}
	}
}
MOTION
Frames: 4
Frame Time: 0.033333
0.437080 27.897583 7.473175 82.073240 -4.124855 -2.564761 5.840482 -1.476088 -0.138809 -4.505692 -5.981538 1.125161 -3.978340 -6.220830 0.289842 -32.792585 -1.702235 16.058680 -6.181625 25.655048 -5.100564 -0.000000 -0.000000 -0.000000 -0.000000 -0.000000 -0.000000 -0.000000 -0.000000 -0.000000 -32.464156 -38.489441 29.683657 -79.250822 -12.366256 -42.888721 0.000003 -47.567049 -0.000001 -117.386008 17.225739 23.833201 0.405919 5.507039 -52.453151 3.387123 5.308606 -65.057470 0.282013 1.797438 -17.832389 0.000002 0.000001 -0.000002 1.567984 0.456397 2.719341 19.471718 -1.478260 7.637086 -4.536170 -9.613110 1.492974 0.000001 0.000001 0.000000 -1.882823 2.129416 -39.817015 2.947086 5.081729 -60.200543 0.514376 2.402391 -24.167402 -0.000002 0.000001 -0.000002 -0.074375 5.736804 -61.061413 4.422087 5.674490 -75.840399 0.582665 2.548974 -25.748000 -0.000002 0.000002 -0.000001 2.216811 7.072466 -64.435417 4.422621 5.674613 -75.845781 1.294118 3.673936 -38.798449 -0.000001 -0.000002 0.000001 -20.876758 19.499222 15.427031 -54.224670 48.923901 38.187772 0.000047 110.391204 -0.000058 -42.846265 -8.113295 -56.436993 3.413066 -7.186238 51.650246 6.296817 -4.359607 110.634673 0.248725 -1.503066 18.790270 0.000001 0.000001 -0.000000 8.377150 -4.904112 11.021994 21.620223 -18.183895 -18.379213 -0.702957 -49.821196 -32.535186 -0.000001 -0.000001 -0.000000 -1.101414 1.407137 15.159501 1.422365 -3.352146 45.974099 0.615822 -2.316447 29.773109 0.000001 -0.000000 0.000000 -3.349041 -2.600422 57.010554 5.440874 -4.590913 99.698161 1.689400 -3.590685 50.382228 -0.000001 -0.000000 0.000000 -3.996454 -3.303936 64.593864 4.058842 -4.618673 82.610523 2.315546 -4.026783 59.787207 0.000000 -0.000000 -0.000002 -11.241646 33.645211 19.721565 22.488762 -9.107564 -9.824526 -11.657350 14.612860 24.184202 6.372669 8.988476 29.872618 0.000000 -0.000001 0.000001 -41.642123 -39.905384 -48.779582 30.064024 -1.949682 -1.048216 -6.800865 7.646667 14.067303 8.701279 -0.550412 -5.227509 -0.000000 0.000001 0.000000 
0.127426 28.026245 7.562851 81.390590 -3.811201 -2.595980 5.631378 -1.857599 -0.941462 -4.388457 -5.716763 1.325492 -3.881060 -5.947234 0.531513 -31.974096 -1.491992 14.460904 -6.857856 23.262895 -3.722081 0.000002 -0.000000 -0.000000 0.000002 -0.000000 -0.000000 0.000002 -0.000000 -0.000000 -31.107745 -38.082754 28.419562 -80.982343 -12.177063 -43.670204 -0.090763 -49.736140 0.009575 -112.473517 17.596956 24.747049 -0.875378 6.744715 -50.198957 3.557705 5.650644 -63.289728 0.444271 1.918678 -15.717582 -0.000000 0.000000 0.000002 1.484556 0.106765 2.641994 19.455751 -1.515533 7.638993 -4.531942 -9.591699 1.497538 0.000000 0.000001 -0.000002 -3.965890 2.045586 -36.360765 3.049376 5.372308 -57.632317 0.694904 2.613492 -22.955762 -0.000002 0.000001 0.000001 -1.381464 7.558710 -58.638397 4.603282 6.052140 -74.283273 0.719735 2.685256 -23.684145 0.000000 0.000003 -0.000002 1.361367 8.276390 -62.155425 4.576796 6.046554 -74.032188 1.482809 3.939538 -38.093485 -0.000001 -0.000001 -0.000000 -19.493189 18.786789 14.815997 -54.599668 49.020667 38.384874 -0.379257 110.467463 0.365416 -41.473609 -7.562184 -55.638718 3.545394 -7.382888 50.980112 6.296096 -4.359854 110.625295 0.248152 -1.498377 18.790639 0.000001 0.000000 -0.000000 7.978280 -3.581280 10.804354 21.838029 -18.014344 -18.258492 -0.366722 -49.806959 -32.213334 0.000001 0.000001 -0.000001 -1.036965 1.422624 14.053525 1.422363 -3.352148 45.974099 0.615422 -2.315681 29.762426 0.000002 -0.000000 0.000000 -3.271223 -2.585638 56.830060 5.446380 -4.589951 99.767241 1.693476 -3.590147 50.451933 -0.000001 -0.000000 -0.000001 -3.796804 -3.242410 64.210144 4.033476 -4.615308 82.295535 2.293764 -4.014061 59.476352 -0.000001 0.000000 -0.000002 -11.096675 32.818369 19.658413 23.679521 -7.326578 -8.972007 -12.305350 14.947306 23.415456 6.128978 5.840365 26.943752 0.000002 0.000001 -0.000001 -39.480399 -39.742849 -46.915746 30.714780 -2.928044 -1.128532 -6.975400 7.587202 14.488115 10.334120 -1.126362 -6.799243 0.000000 0.000001 -0.000000 
-0.190802 27.975616 7.769318 81.032394 -3.403452 -2.547030 4.383986 -2.659884 -1.854097 -4.018743 -5.526529 1.497723 -3.536489 -5.743754 0.750246 -30.812073 -1.213762 12.795049 -7.370622 21.055977 -1.995910 -0.000003 -0.000000 -0.000000 -0.000003 -0.000000 -0.000000 -0.000003 -0.000000 -0.000000 -29.630614 -37.492288 26.916645 -82.297919 -12.597941 -44.103095 -0.800111 -52.138280 -0.213934 -106.964594 18.804417 26.027956 -2.406273 7.991449 -47.658424 3.714147 6.042630 -61.316070 0.602319 2.065020 -13.365771 -0.000001 0.000003 -0.000001 1.392137 -0.277052 2.556663 19.438165 -1.556399 7.641048 -4.527271 -9.568249 1.502574 0.000002 0.000002 -0.000001 -6.331054 1.619506 -32.625365 3.119194 5.710368 -54.761185 0.879531 2.853598 -21.609586 -0.000002 0.000000 -0.000002 -3.013937 9.434937 -55.888788 4.773254 6.482332 -72.540652 0.849480 2.846838 -21.387706 -0.000005 0.000001 0.000001 0.293910 9.524157 -59.590675 4.713048 6.471924 -72.007310 1.681079 4.236274 -37.309861 -0.000001 0.000001 0.000001 -18.022112 17.411354 14.454232 -55.770981 49.954525 40.550922 -0.400035 110.115285 0.395757 -39.816103 -6.407467 -54.775996 3.549195 -7.432141 50.427942 6.310939 -4.354264 110.820612 0.247987 -1.497076 18.790711 0.000001 -0.000001 0.000001 7.231313 -1.629006 10.451379 22.215096 -17.709499 -18.057058 0.993085 -49.737226 -30.914331 0.000002 -0.000002 -0.000002 -1.002764 1.308824 12.433121 1.422364 -3.352146 45.974099 0.614981 -2.314922 29.751696 -0.000000 -0.000001 -0.000001 -2.900007 -2.613497 56.613187 5.453758 -4.588712 99.859046 1.698002 -3.575524 50.546948 -0.000001 0.000000 0.000002 -3.274189 -3.162806 63.612345 4.012357 -4.612394 82.032840 2.275992 -4.003544 59.222419 0.000000 -0.000002 0.000002 -10.950720 32.710742 19.473578 24.116578 -6.177903 -8.150098 -13.111929 15.163107 23.587597 4.763898 1.625274 22.465923 -0.000001 0.000000 0.000002 -38.118896 -39.583350 -45.809546 31.121016 -4.078980 -1.225899 -6.672372 7.565318 14.920446 11.761526 -1.684713 -8.307647 -0.000000 0.000001 0.000001 
-0.579961 27.779587 8.016769 80.976722 -2.661850 -2.546428 2.267664 -4.032516 -2.682423 -3.549418 -5.423610 1.631417 -3.092254 -5.627269 0.934458 -29.428444 -0.872229 11.448959 -7.520499 19.779630 -0.695559 0.000001 -0.000000 -0.000000 0.000001 -0.000000 -0.000000 0.000001 -0.000000 -0.000000 -28.020743 -36.524700 25.240296 -83.468887 -13.335663 -44.397893 -1.936634 -54.387451 -0.580657 -100.450875 21.187880 26.925319 -4.169130 9.191025 -44.946517 3.852097 6.481326 -59.245211 0.749271 2.241882 -10.894262 0.000002 -0.000001 0.000000 1.292490 -0.686712 2.465055 19.419421 -1.600085 7.643246 -4.522334 -9.543125 1.507919 -0.000002 -0.000000 0.000001 -8.881536 0.831151 -28.848496 3.154149 6.095440 -51.754642 1.062480 3.122606 -20.194523 0.000002 -0.000000 -0.000001 -4.969809 11.284955 -52.921771 4.928575 6.959684 -70.716377 0.966629 3.038164 -18.974692 0.000001 0.000000 0.000002 -0.981288 10.766285 -56.855185 4.827331 6.945377 -69.880751 1.884149 4.560676 -36.486362 -0.000002 -0.000002 -0.000002 -16.501877 14.781417 14.136159 -58.606015 51.967829 46.445952 -0.913640 108.674170 0.871660 -37.730382 -4.350925 -53.424281 3.406180 -7.291714 50.147437 6.340696 -4.342878 111.212863 0.248358 -1.500092 18.790516 0.000001 -0.000001 -0.000001 6.963223 1.445605 10.416066 22.512105 -17.471457 -17.896670 2.662350 -49.624005 -29.320260 -0.000002 0.000001 -0.000000 -0.924447 1.426444 11.883180 1.422363 -3.352148 45.974099 0.614550 -2.314162 29.740945 0.000001 -0.000000 -0.000001 -2.319813 -2.686161 56.454550 5.456426 -4.588223 99.892685 1.698115 -3.547052 50.585218 0.000000 -0.000000 -0.000003 -2.445126 -3.144340 63.297357 4.006528 -4.611598 81.960528 2.271739 -4.001006 59.161241 -0.000001 0.000000 0.000001 -11.147965 33.184863 19.599732 24.143148 -5.841892 -7.502705 -14.249145 15.407404 24.123567 2.767377 -1.369914 17.704120 -0.000000 -0.000001 0.000003 -36.965465 -39.585048 -44.934291 31.315208 -5.346611 -1.221378 -6.183996 7.565542 15.364253 13.076606 -2.297711 -9.800914 0.000000 0.000001 -0.000000 
